<svg xmlns="http://www.w3.org/2000/svg" version="1.1" xmlns:xlink="http://www.w3.org/1999/xlink" xmlns:svgjs="http://svgjs.dev/svgjs" width="1000" height="1000" viewBox="0 0 1000 1000"><g transform="matrix(1,0,0,1,-0.14221556886212738,-0.14221556886229791)"><svg viewBox="0 0 334 334" data-background-color="#ed2647" preserveAspectRatio="xMidYMid meet" height="1000" width="1000" xmlns="http://www.w3.org/2000/svg" xmlns:xlink="http://www.w3.org/1999/xlink"><g id="tight-bounds" transform="matrix(1,0,0,1,0.04749999999998522,0.04750000000001364)"><svg viewBox="0 0 333.90454557049503 333.90454557049503" height="333.90454557049503" width="333.90454557049503"><g><svg></svg></g><g><svg viewBox="0 0 333.90454557049503 333.90454557049503" height="333.90454557049503" width="333.90454557049503"><g><path d="M0 166.952c0-92.205 74.747-166.952 166.952-166.952 92.205 0 166.952 74.747 166.953 166.952 0 92.205-74.747 166.952-166.953 166.953-92.205 0-166.952-74.747-166.952-166.953zM166.952 325.767c87.711 0 158.815-71.104 158.815-158.815 0-87.711-71.104-158.815-158.815-158.814-87.711 0-158.815 71.104-158.814 158.814 0 87.711 71.104 158.815 158.814 158.815z" data-fill-palette-color="tertiary" fill="#8d021f" stroke="transparent"></path><ellipse rx="160.27418187383762" ry="160.27418187383762" cx="166.95227278524752" cy="166.95227278524752" fill="#8d021f" stroke="transparent" stroke-width="0" fill-opacity="1" data-fill-palette-color="tertiary"></ellipse></g><g transform="matrix(1,0,0,1,109.63372931061251,71.17305217166896)"><svg viewBox="0 0 114.63708694927001 191.55844122715712" height="191.55844122715712" width="114.63708694927001"><g><svg viewBox="0 0 114.63708694927001 191.55844122715712" height="191.55844122715712" width="114.63708694927001"><g><svg viewBox="0 0 213.15844122715714 356.1875115856197" height="191.55844122715712" width="114.63708694927001"><g transform="matrix(1,0,0,1,0,188.40014419396186)"><svg viewBox="0 0 213.15844122715714 167.78736739165782" height="167.78736739165782" width="213.15844122715714"><g id="textblocktransform"><svg viewBox="0 0 213.15844122715714 167.78736739165782" height="167.78736739165782" width="213.15844122715714" id="textblock"><g><svg viewBox="0 0 213.15844122715714 167.78736739165782" height="167.78736739165782" width="213.15844122715714"><g transform="matrix(1,0,0,1,0,0)"><svg width="213.15844122715714" viewBox="4 -29.399999618530273 37.349998474121094 29.399999618530273" height="167.78736739165782" data-palette-color="#ed2647"><path d="M11.1 0L4.5 0 4.5-25.4 4-29.4 11.6-29.4 22.9-9.4 34.6-29.4 41.35-29.4 41.35 0 34.75 0 34.75-18.65 34.2-18.65 32.25-14.3 25.95-3 19.9-3 13.6-14.3 11.6-18.65 11.1-18.65 11.1 0Z" opacity="1" transform="matrix(1,0,0,1,0,0)" fill="#ed2647" class="wordmark-text-0" data-fill-palette-color="quaternary" id="text-0"></path></svg></g></svg></g></svg></g></svg></g><g transform="matrix(1,0,0,1,40.71326227438702,0)"><svg viewBox="0 0 131.7319166783831 148.78957364960885" height="148.78957364960885" width="131.7319166783831"><g><svg xmlns="http://www.w3.org/2000/svg" data-name="Glyph Icon" viewBox="7.210000038146973 4 49.58000183105469 56" x="0" y="0" height="148.78957364960885" width="131.7319166783831" class="icon-icon-0" data-fill-palette-color="quaternary" id="icon-0"><path d="M49.13 20.84l-16-9.26V4L55.7 17.05ZM32 50.52L16 41.26V22.74l16-9.26 16 9.26V41.26ZM30.91 11.58l-16 9.26L8.3 17.05 30.91 4ZM13.77 22.74V41.26L7.21 45.05V19Zm1.1 20.42l16 9.26V60L8.3 47Zm18.22 9.26l16-9.26L55.7 47 33.09 60ZM50.23 41.26V22.74L56.79 19v26.1Z" fill="#ed2647" data-fill-palette-color="quaternary"></path></svg></g></svg></g><g></g></svg></g></svg></g></svg></g></svg></g><defs></defs></svg><rect width="333.90454557049503" height="333.90454557049503" fill="none" stroke="none" visibility="hidden"></rect></g></svg></g></svg>